<svg width="414" height="227" viewBox="0 0 414 227" fill="none" xmlns="http://www.w3.org/2000/svg">
<path d="M55.6719 118.316H42.4226C41.9567 118.316 41.5099 118.502 41.1805 118.832C40.8511 119.163 40.666 119.611 40.666 120.078V125.91C40.666 126.377 40.8511 126.826 41.1805 127.156C41.5099 127.486 41.9567 127.672 42.4226 127.672H44.6182V136.411H53.4763V127.672H55.6719C56.1378 127.672 56.5846 127.486 56.914 127.156C57.2434 126.826 57.4285 126.377 57.4285 125.91V120.078C57.4285 119.611 57.2434 119.163 56.914 118.832C56.5846 118.502 56.1378 118.316 55.6719 118.316Z" fill="#EF5734"/>
<path d="M68.9424 171.694C60.8281 159.787 56.6799 145.609 57.0921 131.191C57.0995 130.859 56.9918 130.534 56.7874 130.272C56.583 130.01 56.2944 129.827 55.9707 129.754V127.234H41.9777V129.719H41.7849C41.5875 129.719 41.3923 129.76 41.2115 129.839C41.0307 129.919 40.8681 130.034 40.7339 130.18C40.5997 130.325 40.4968 130.496 40.4316 130.683C40.3664 130.87 40.3403 131.068 40.3549 131.265C41.4573 146.677 37.7348 160.498 29.1873 172.728C28.6955 173.431 28.4442 174.275 28.4712 175.133L30.0013 222.6C30.038 223.659 30.4811 224.662 31.238 225.401C31.9949 226.14 33.0071 226.557 34.0634 226.566H65.7136C66.7819 226.557 67.8046 226.13 68.5639 225.376C69.3231 224.622 69.7588 223.601 69.7782 222.53L70.3678 176.443C70.3852 174.752 69.888 173.095 68.9424 171.694Z" fill="#3F3D56"/>
<path opacity="0.2" d="M52.9097 120.217C52.9097 121.225 52.5104 122.191 51.7997 122.904C51.0889 123.617 50.125 124.017 49.1199 124.017C48.1148 124.017 47.1508 123.617 46.4401 122.904C45.7294 122.191 45.3301 121.225 45.3301 120.217" fill="black"/>
<path d="M63.9321 187.461H60.0995C59.7336 185.08 58.53 182.909 56.7065 181.34C54.8831 179.772 52.56 178.91 50.1577 178.91C47.7554 178.91 45.4324 179.772 43.6089 181.34C41.7854 182.909 40.5818 185.08 40.2159 187.461H36.3831C35.9753 187.461 35.5723 187.55 35.2018 187.721C34.8313 187.891 34.502 188.141 34.2364 188.451C33.9709 188.761 33.7754 189.126 33.6634 189.519C33.5515 189.912 33.5256 190.325 33.5876 190.729L37.7506 217.868H61.6554L66.712 190.821C66.7886 190.411 66.7743 189.989 66.67 189.586C66.5657 189.183 66.374 188.807 66.1086 188.486C65.8432 188.166 65.5105 187.908 65.1343 187.73C64.7582 187.553 64.3477 187.461 63.9321 187.461Z" fill="#EF5734"/>
<path d="M386.005 143.84L385.085 180.691L383.947 226.388H345.193L343.859 172.849L343.135 143.84H386.005Z" fill="#E6E6E6"/>
<path d="M367.142 124.235H361.655V197.153H367.142V124.235Z" fill="#EF5734"/>
<path d="M383.261 171.607L382.223 223.985H346.899L345.683 162.619C348.866 161.722 352.198 161.493 355.473 161.945C358.747 162.396 361.894 163.52 364.717 165.244C370.619 168.745 377.249 170.63 383.261 171.607Z" fill="#3F3D56"/>
<path d="M355.644 177.504H350.609V182.553H355.644V177.504Z" fill="#E6E6E6"/>
<path d="M359.074 167.185H354.039V172.235H359.074V167.185Z" fill="#E6E6E6"/>
<path d="M369.886 174.329L365.841 171.32L362.842 175.376L366.886 178.385L369.886 174.329Z" fill="#E6E6E6"/>
<path d="M378.983 183.276L374.938 180.268L371.939 184.324L375.983 187.332L378.983 183.276Z" fill="#E6E6E6"/>
<path d="M363.55 188.435L359.506 185.427L356.506 189.483L360.551 192.491L363.55 188.435Z" fill="#E6E6E6"/>
<path d="M375.373 165.165C375.941 165.165 376.402 164.703 376.402 164.133C376.402 163.564 375.941 163.102 375.373 163.102C374.805 163.102 374.344 163.564 374.344 164.133C374.344 164.703 374.805 165.165 375.373 165.165Z" fill="#3F3D56"/>
<path d="M354.453 158.286C355.021 158.286 355.482 157.824 355.482 157.254C355.482 156.685 355.021 156.223 354.453 156.223C353.884 156.223 353.424 156.685 353.424 157.254C353.424 157.824 353.884 158.286 354.453 158.286Z" fill="#3F3D56"/>
<path d="M371.943 151.063C372.512 151.063 372.972 150.601 372.972 150.031C372.972 149.461 372.512 149 371.943 149C371.375 149 370.915 149.461 370.915 150.031C370.915 150.601 371.375 151.063 371.943 151.063Z" fill="#3F3D56"/>
<path d="M207.237 226.074C269.485 226.074 319.947 175.465 319.947 113.037C319.947 50.6083 269.485 0 207.237 0C144.989 0 94.5273 50.6083 94.5273 113.037C94.5273 175.465 144.989 226.074 207.237 226.074Z" fill="#EF5734"/>
<path opacity="0.2" d="M207.237 195.543C188.204 195.543 169.76 188.924 155.048 176.815C140.335 164.705 130.265 147.854 126.551 129.133C122.838 110.412 125.713 90.9785 134.685 74.1444C143.657 57.3102 158.172 44.1169 175.756 36.8123C193.34 29.5076 212.905 28.5437 231.118 34.0847C249.332 39.6257 265.066 51.3289 275.64 67.2C286.214 83.0712 290.974 102.128 289.108 121.124C287.242 140.121 278.867 157.88 265.409 171.378C257.787 179.063 248.722 185.156 238.736 189.304C228.751 193.452 218.045 195.573 207.237 195.543ZM207.237 35.6194C164.672 35.6194 130.043 70.3487 130.043 113.037C130.043 155.725 164.672 190.454 207.237 190.454C249.801 190.454 284.43 155.725 284.43 113.037C284.43 70.3487 249.801 35.6194 207.237 35.6194Z" fill="black"/>
<path d="M207.237 192.999C251.27 192.999 286.967 157.198 286.967 113.037C286.967 68.8752 251.27 33.0751 207.237 33.0751C163.203 33.0751 127.506 68.8752 127.506 113.037C127.506 157.198 163.203 192.999 207.237 192.999Z" fill="#3F3D56"/>
<path d="M147.943 81.0634C147.338 79.8757 146.973 78.5801 146.868 77.2507C146.763 75.9213 146.92 74.5842 147.331 73.3158C147.741 72.0473 148.397 70.8725 149.261 69.8584C150.124 68.8443 151.178 68.0109 152.363 67.4057C153.548 66.8005 154.841 66.4355 156.166 66.3316C157.492 66.2276 158.825 66.3867 160.089 66.7997C161.354 67.2127 162.524 67.8717 163.535 68.7388C164.545 69.6059 165.375 70.6642 165.977 71.8532L188.503 116.215C189.107 117.403 189.473 118.699 189.578 120.028C189.683 121.358 189.526 122.695 189.115 123.963C188.705 125.232 188.049 126.406 187.185 127.42C186.322 128.435 185.267 129.268 184.083 129.873C182.898 130.478 181.605 130.843 180.28 130.947C178.954 131.051 177.621 130.892 176.357 130.479C175.092 130.066 173.922 129.407 172.911 128.54C171.901 127.673 171.071 126.615 170.469 125.426L147.943 81.0634Z" fill="#F4B51E"/>
<path opacity="0.2" d="M150.456 86.0116L149.416 83.9641C154.605 79.9208 160.697 76.9472 167.45 74.7538L168.489 76.8013C161.181 78.3275 154.964 81.1521 150.456 86.0116Z" fill="black"/>
<path opacity="0.2" d="M155.307 95.5665L154.268 93.519C159.456 89.4757 165.549 86.5022 172.301 84.3087L173.341 86.3562C166.033 87.8825 159.815 90.7071 155.307 95.5665Z" fill="black"/>
<path opacity="0.2" d="M160.159 105.122L159.12 103.074C164.308 99.0308 170.401 96.0572 177.153 93.8638L178.193 95.9113C170.885 97.4375 164.667 100.262 160.159 105.122Z" fill="black"/>
<path opacity="0.2" d="M165.011 114.676L163.971 112.629C169.16 108.586 175.253 105.612 182.005 103.419L183.045 105.466C175.737 106.992 169.519 109.817 165.011 114.676Z" fill="black"/>
<path opacity="0.2" d="M169.862 124.231L168.823 122.184C174.011 118.141 180.104 115.167 186.857 112.974L187.896 115.021C180.588 116.547 174.371 119.372 169.862 124.231Z" fill="black"/>
<path d="M131.044 97.671C130.439 96.4833 130.074 95.1878 129.969 93.8585C129.864 92.5291 130.021 91.1921 130.432 89.9238C130.843 88.6555 131.498 87.4807 132.362 86.4667C133.225 85.4527 134.28 84.6194 135.464 84.0142C136.649 83.4091 137.941 83.0441 139.267 82.9401C140.593 82.8361 141.926 82.9951 143.19 83.4081C144.454 83.821 145.625 84.4798 146.635 85.3468C147.645 86.2137 148.475 87.2719 149.078 88.4608L171.603 132.823C172.818 135.221 173.033 138.004 172.203 140.562C171.372 143.119 169.563 145.241 167.173 146.462C164.784 147.682 162.008 147.901 159.458 147.071C156.907 146.241 154.789 144.429 153.57 142.033L131.044 97.671Z" fill="#F4B51E"/>
<path opacity="0.2" d="M133.556 102.619L132.517 100.572C137.705 96.5285 143.798 93.5549 150.55 91.3615L151.59 93.4089C144.282 94.9352 138.064 97.7598 133.556 102.619Z" fill="black"/>
<path opacity="0.2" d="M138.408 112.174L137.368 110.127C142.557 106.083 148.65 103.11 155.402 100.916L156.442 102.964C149.133 104.49 142.916 107.315 138.408 112.174Z" fill="black"/>
<path opacity="0.2" d="M143.259 121.729L142.22 119.682C147.408 115.638 153.501 112.665 160.254 110.471L161.293 112.519C153.985 114.045 147.768 116.87 143.259 121.729Z" fill="black"/>
<path opacity="0.2" d="M148.111 131.284L147.072 129.237C152.26 125.193 158.353 122.22 165.106 120.026L166.145 122.074C158.837 123.6 152.62 126.425 148.111 131.284Z" fill="black"/>
<path opacity="0.2" d="M152.963 140.839L151.923 138.791C157.112 134.748 163.205 131.775 169.957 129.581L170.997 131.629C163.689 133.155 157.471 135.979 152.963 140.839Z" fill="black"/>
<path d="M260.511 115.581L260.582 115.581C263.009 115.602 265.385 114.888 267.401 113.534C269.416 112.18 270.979 110.248 271.883 107.99C273.743 103.273 274.681 98.2422 274.645 93.1705C274.518 71.704 257.104 54.0933 235.702 53.7964C226.587 53.6684 217.708 56.7055 210.571 62.3927C203.434 68.08 198.477 76.0675 196.541 85.0012C194.605 93.935 195.809 103.265 199.949 111.41C204.089 119.556 210.909 126.015 219.255 129.692C221.461 130.672 223.91 130.96 226.281 130.519C228.653 130.078 230.836 128.928 232.545 127.221C236.21 123.526 240.568 120.595 245.368 118.597C250.168 116.6 255.314 115.574 260.511 115.581Z" fill="#E6E6E6"/>
<path d="M240.216 103.587C247.422 103.587 253.263 97.7286 253.263 90.5021C253.263 83.2757 247.422 77.4175 240.216 77.4175C233.011 77.4175 227.169 83.2757 227.169 90.5021C227.169 97.7286 233.011 103.587 240.216 103.587Z" fill="#F9A825"/>
<path d="M211.861 89.0309C212.71 89.0309 213.398 88.3407 213.398 87.4894C213.398 86.6381 212.71 85.948 211.861 85.948C211.012 85.948 210.324 86.6381 210.324 87.4894C210.324 88.3407 211.012 89.0309 211.861 89.0309Z" fill="#3F3D56"/>
<path d="M161.123 90.4847C161.972 90.4847 162.66 89.7946 162.66 88.9433C162.66 88.092 161.972 87.4019 161.123 87.4019C160.275 87.4019 159.586 88.092 159.586 88.9433C159.586 89.7946 160.275 90.4847 161.123 90.4847Z" fill="#3F3D56"/>
<path d="M220.052 73.056C220.901 73.056 221.589 72.3659 221.589 71.5146C221.589 70.6633 220.901 69.9731 220.052 69.9731C219.203 69.9731 218.515 70.6633 218.515 71.5146C218.515 72.3659 219.203 73.056 220.052 73.056Z" fill="#3F3D56"/>
<path d="M220.009 117.486C220.857 117.486 221.546 116.796 221.546 115.945C221.546 115.093 220.857 114.403 220.009 114.403C219.16 114.403 218.472 115.093 218.472 115.945C218.472 116.796 219.16 117.486 220.009 117.486Z" fill="#3F3D56"/>
<path d="M250.451 69.8724C251.3 69.8724 251.988 69.1823 251.988 68.331C251.988 67.4797 251.3 66.7896 250.451 66.7896C249.602 66.7896 248.914 67.4797 248.914 68.331C248.914 69.1823 249.602 69.8724 250.451 69.8724Z" fill="#3F3D56"/>
<path d="M151.151 112.034C152 112.034 152.688 111.344 152.688 110.493C152.688 109.641 152 108.951 151.151 108.951C150.302 108.951 149.614 109.641 149.614 110.493C149.614 111.344 150.302 112.034 151.151 112.034Z" fill="#3F3D56"/>
<path d="M162.385 134.205C163.234 134.205 163.922 133.515 163.922 132.664C163.922 131.813 163.234 131.122 162.385 131.122C161.536 131.122 160.848 131.813 160.848 132.664C160.848 133.515 161.536 134.205 162.385 134.205Z" fill="#3F3D56"/>
<path d="M232.968 141.387C236.17 141.387 238.767 138.783 238.767 135.572C238.767 132.36 236.17 129.756 232.968 129.756C229.766 129.756 227.169 132.36 227.169 135.572C227.169 138.783 229.766 141.387 232.968 141.387Z" fill="#FF6584"/>
<path opacity="0.2" d="M237.317 135.935C237.317 137.092 236.859 138.201 236.043 139.019C235.228 139.837 234.122 140.297 232.968 140.297C231.815 140.297 230.708 139.837 229.893 139.019C229.077 138.201 228.619 137.092 228.619 135.935" fill="black"/>
<path opacity="0.2" d="M228.619 135.208C228.619 134.051 229.077 132.942 229.893 132.124C230.708 131.306 231.815 130.847 232.968 130.847C234.122 130.847 235.228 131.306 236.043 132.124C236.859 132.942 237.317 134.051 237.317 135.208" fill="black"/>
<path d="M230.794 134.118C230.994 134.118 231.156 133.874 231.156 133.573C231.156 133.271 230.994 133.027 230.794 133.027C230.593 133.027 230.431 133.271 230.431 133.573C230.431 133.874 230.593 134.118 230.794 134.118Z" fill="#FF6584"/>
<path d="M232.968 133.391C233.168 133.391 233.33 133.147 233.33 132.846C233.33 132.545 233.168 132.3 232.968 132.3C232.768 132.3 232.605 132.545 232.605 132.846C232.605 133.147 232.768 133.391 232.968 133.391Z" fill="#FF6584"/>
<path d="M232.968 138.116C233.168 138.116 233.33 137.872 233.33 137.571C233.33 137.269 233.168 137.025 232.968 137.025C232.768 137.025 232.605 137.269 232.605 137.571C232.605 137.872 232.768 138.116 232.968 138.116Z" fill="#FF6584"/>
<path d="M235.143 135.208C235.343 135.208 235.505 134.964 235.505 134.663C235.505 134.362 235.343 134.118 235.143 134.118C234.942 134.118 234.78 134.362 234.78 134.663C234.78 134.964 234.942 135.208 235.143 135.208Z" fill="#FF6584"/>
<path d="M234.78 139.206C234.98 139.206 235.142 138.962 235.142 138.661C235.142 138.36 234.98 138.116 234.78 138.116C234.58 138.116 234.417 138.36 234.417 138.661C234.417 138.962 234.58 139.206 234.78 139.206Z" fill="#FF6584"/>
<path d="M230.431 137.389C230.631 137.389 230.794 137.145 230.794 136.844C230.794 136.543 230.631 136.298 230.431 136.298C230.231 136.298 230.069 136.543 230.069 136.844C230.069 137.145 230.231 137.389 230.431 137.389Z" fill="#FF6584"/>
<path d="M244.565 125.758C247.768 125.758 250.364 123.154 250.364 119.943C250.364 116.731 247.768 114.127 244.565 114.127C241.363 114.127 238.767 116.731 238.767 119.943C238.767 123.154 241.363 125.758 244.565 125.758Z" fill="#FF6584"/>
<path opacity="0.2" d="M248.914 120.306C248.914 121.463 248.456 122.572 247.64 123.39C246.825 124.208 245.719 124.668 244.565 124.668C243.412 124.668 242.306 124.208 241.49 123.39C240.674 122.572 240.216 121.463 240.216 120.306" fill="black"/>
<path opacity="0.2" d="M240.216 119.579C240.216 118.422 240.674 117.313 241.49 116.495C242.306 115.677 243.412 115.218 244.565 115.218C245.719 115.218 246.825 115.677 247.64 116.495C248.456 117.313 248.914 118.422 248.914 119.579" fill="black"/>
<path d="M242.391 118.489C242.591 118.489 242.753 118.245 242.753 117.944C242.753 117.643 242.591 117.398 242.391 117.398C242.191 117.398 242.028 117.643 242.028 117.944C242.028 118.245 242.191 118.489 242.391 118.489Z" fill="#FF6584"/>
<path d="M244.565 117.762C244.765 117.762 244.927 117.518 244.927 117.217C244.927 116.916 244.765 116.672 244.565 116.672C244.365 116.672 244.203 116.916 244.203 117.217C244.203 117.518 244.365 117.762 244.565 117.762Z" fill="#FF6584"/>
<path d="M244.565 122.487C244.765 122.487 244.927 122.243 244.927 121.942C244.927 121.641 244.765 121.396 244.565 121.396C244.365 121.396 244.203 121.641 244.203 121.942C244.203 122.243 244.365 122.487 244.565 122.487Z" fill="#FF6584"/>
<path d="M246.739 119.579C246.94 119.579 247.102 119.335 247.102 119.034C247.102 118.733 246.94 118.489 246.739 118.489C246.539 118.489 246.377 118.733 246.377 119.034C246.377 119.335 246.539 119.579 246.739 119.579Z" fill="#FF6584"/>
<path d="M246.377 123.577C246.577 123.577 246.739 123.333 246.739 123.032C246.739 122.731 246.577 122.487 246.377 122.487C246.177 122.487 246.015 122.731 246.015 123.032C246.015 123.333 246.177 123.577 246.377 123.577Z" fill="#FF6584"/>
<path d="M242.028 121.76C242.229 121.76 242.391 121.516 242.391 121.215C242.391 120.914 242.229 120.67 242.028 120.67C241.828 120.67 241.666 120.914 241.666 121.215C241.666 121.516 241.828 121.76 242.028 121.76Z" fill="#FF6584"/>
<path d="M256.162 133.754C259.365 133.754 261.961 131.151 261.961 127.939C261.961 124.727 259.365 122.123 256.162 122.123C252.96 122.123 250.364 124.727 250.364 127.939C250.364 131.151 252.96 133.754 256.162 133.754Z" fill="#6C63FF"/>
<path opacity="0.2" d="M260.511 128.302C260.511 129.459 260.053 130.568 259.238 131.386C258.422 132.204 257.316 132.664 256.162 132.664C255.009 132.664 253.903 132.204 253.087 131.386C252.272 130.568 251.813 129.459 251.813 128.302" fill="black"/>
<path opacity="0.2" d="M251.813 127.575C251.813 126.419 252.272 125.309 253.087 124.491C253.903 123.673 255.009 123.214 256.162 123.214C257.316 123.214 258.422 123.673 259.238 124.491C260.053 125.309 260.511 126.419 260.511 127.575" fill="black"/>
<path d="M253.988 126.485C254.188 126.485 254.35 126.241 254.35 125.94C254.35 125.639 254.188 125.395 253.988 125.395C253.788 125.395 253.625 125.639 253.625 125.94C253.625 126.241 253.788 126.485 253.988 126.485Z" fill="#6C63FF"/>
<path d="M256.162 125.758C256.362 125.758 256.525 125.514 256.525 125.213C256.525 124.912 256.362 124.668 256.162 124.668C255.962 124.668 255.8 124.912 255.8 125.213C255.8 125.514 255.962 125.758 256.162 125.758Z" fill="#6C63FF"/>
<path d="M256.162 130.483C256.362 130.483 256.525 130.239 256.525 129.938C256.525 129.637 256.362 129.393 256.162 129.393C255.962 129.393 255.8 129.637 255.8 129.938C255.8 130.239 255.962 130.483 256.162 130.483Z" fill="#6C63FF"/>
<path d="M258.337 127.575C258.537 127.575 258.699 127.331 258.699 127.03C258.699 126.729 258.537 126.485 258.337 126.485C258.136 126.485 257.974 126.729 257.974 127.03C257.974 127.331 258.136 127.575 258.337 127.575Z" fill="#6C63FF"/>
<path d="M257.974 131.573C258.174 131.573 258.337 131.329 258.337 131.028C258.337 130.727 258.174 130.483 257.974 130.483C257.774 130.483 257.612 130.727 257.612 131.028C257.612 131.329 257.774 131.573 257.974 131.573Z" fill="#6C63FF"/>
<path d="M253.626 129.756C253.826 129.756 253.988 129.512 253.988 129.211C253.988 128.91 253.826 128.666 253.626 128.666C253.425 128.666 253.263 128.91 253.263 129.211C253.263 129.512 253.425 129.756 253.626 129.756Z" fill="#6C63FF"/>
<path d="M227.17 134.481C230.372 134.481 232.968 131.877 232.968 128.666C232.968 125.454 230.372 122.85 227.17 122.85C223.967 122.85 221.371 125.454 221.371 128.666C221.371 131.877 223.967 134.481 227.17 134.481Z" fill="#6C63FF"/>
<path opacity="0.2" d="M231.518 129.029C231.518 130.186 231.06 131.295 230.244 132.113C229.429 132.931 228.323 133.391 227.169 133.391C226.016 133.391 224.91 132.931 224.094 132.113C223.278 131.295 222.82 130.186 222.82 129.029" fill="black"/>
<path opacity="0.2" d="M222.82 128.302C222.82 127.146 223.278 126.036 224.094 125.218C224.91 124.4 226.016 123.941 227.169 123.941C228.323 123.941 229.429 124.4 230.244 125.218C231.06 126.036 231.518 127.146 231.518 128.302" fill="black"/>
<path d="M224.995 127.212C225.195 127.212 225.358 126.968 225.358 126.667C225.358 126.366 225.195 126.122 224.995 126.122C224.795 126.122 224.633 126.366 224.633 126.667C224.633 126.968 224.795 127.212 224.995 127.212Z" fill="#6C63FF"/>
<path d="M227.17 126.485C227.37 126.485 227.532 126.241 227.532 125.94C227.532 125.639 227.37 125.395 227.17 125.395C226.969 125.395 226.807 125.639 226.807 125.94C226.807 126.241 226.969 126.485 227.17 126.485Z" fill="#6C63FF"/>
<path d="M227.17 131.21C227.37 131.21 227.532 130.966 227.532 130.665C227.532 130.364 227.37 130.12 227.17 130.12C226.969 130.12 226.807 130.364 226.807 130.665C226.807 130.966 226.969 131.21 227.17 131.21Z" fill="#6C63FF"/>
<path d="M229.344 128.302C229.544 128.302 229.706 128.058 229.706 127.757C229.706 127.456 229.544 127.212 229.344 127.212C229.144 127.212 228.981 127.456 228.981 127.757C228.981 128.058 229.144 128.302 229.344 128.302Z" fill="#6C63FF"/>
<path d="M228.982 132.3C229.182 132.3 229.344 132.056 229.344 131.755C229.344 131.454 229.182 131.21 228.982 131.21C228.781 131.21 228.619 131.454 228.619 131.755C228.619 132.056 228.781 132.3 228.982 132.3Z" fill="#6C63FF"/>
<path d="M224.632 130.483C224.833 130.483 224.995 130.239 224.995 129.938C224.995 129.637 224.833 129.393 224.632 129.393C224.432 129.393 224.27 129.637 224.27 129.938C224.27 130.239 224.432 130.483 224.632 130.483Z" fill="#6C63FF"/>
<path d="M240.216 137.025C243.418 137.025 246.015 134.422 246.015 131.21C246.015 127.998 243.418 125.395 240.216 125.395C237.014 125.395 234.417 127.998 234.417 131.21C234.417 134.422 237.014 137.025 240.216 137.025Z" fill="#6C63FF"/>
<path opacity="0.2" d="M244.565 131.573C244.565 132.146 244.453 132.713 244.234 133.243C244.015 133.772 243.695 134.253 243.291 134.658C242.887 135.063 242.408 135.384 241.88 135.603C241.353 135.822 240.787 135.935 240.216 135.935C239.645 135.935 239.079 135.822 238.552 135.603C238.024 135.384 237.545 135.063 237.141 134.658C236.737 134.253 236.417 133.772 236.198 133.243C235.98 132.713 235.867 132.146 235.867 131.573" fill="black"/>
<path opacity="0.2" d="M235.867 130.847C235.867 130.274 235.98 129.707 236.198 129.177C236.417 128.648 236.737 128.167 237.141 127.762C237.545 127.357 238.024 127.036 238.552 126.817C239.079 126.598 239.645 126.485 240.216 126.485C240.787 126.485 241.353 126.598 241.88 126.817C242.408 127.036 242.887 127.357 243.291 127.762C243.695 128.167 244.015 128.648 244.234 129.177C244.453 129.707 244.565 130.274 244.565 130.847" fill="black"/>
<path d="M238.042 129.756C238.242 129.756 238.404 129.512 238.404 129.211C238.404 128.91 238.242 128.666 238.042 128.666C237.841 128.666 237.679 128.91 237.679 129.211C237.679 129.512 237.841 129.756 238.042 129.756Z" fill="#6C63FF"/>
<path d="M240.216 129.029C240.417 129.029 240.579 128.785 240.579 128.484C240.579 128.183 240.417 127.939 240.216 127.939C240.016 127.939 239.854 128.183 239.854 128.484C239.854 128.785 240.016 129.029 240.216 129.029Z" fill="#6C63FF"/>
<path d="M240.216 133.754C240.417 133.754 240.579 133.51 240.579 133.209C240.579 132.908 240.417 132.664 240.216 132.664C240.016 132.664 239.854 132.908 239.854 133.209C239.854 133.51 240.016 133.754 240.216 133.754Z" fill="#6C63FF"/>
<path d="M242.391 130.846C242.591 130.846 242.753 130.602 242.753 130.301C242.753 130 242.591 129.756 242.391 129.756C242.191 129.756 242.028 130 242.028 130.301C242.028 130.602 242.191 130.846 242.391 130.846Z" fill="#6C63FF"/>
<path d="M242.028 134.845C242.229 134.845 242.391 134.601 242.391 134.299C242.391 133.998 242.229 133.754 242.028 133.754C241.828 133.754 241.666 133.998 241.666 134.299C241.666 134.601 241.828 134.845 242.028 134.845Z" fill="#6C63FF"/>
<path d="M237.679 133.027C237.879 133.027 238.042 132.783 238.042 132.482C238.042 132.181 237.879 131.937 237.679 131.937C237.479 131.937 237.317 132.181 237.317 132.482C237.317 132.783 237.479 133.027 237.679 133.027Z" fill="#6C63FF"/>
<path d="M249.277 143.204C252.479 143.204 255.075 140.601 255.075 137.389C255.075 134.177 252.479 131.573 249.277 131.573C246.074 131.573 243.478 134.177 243.478 137.389C243.478 140.601 246.074 143.204 249.277 143.204Z" fill="#FF6584"/>
<path opacity="0.2" d="M253.626 137.752C253.626 138.909 253.167 140.018 252.352 140.836C251.536 141.654 250.43 142.114 249.277 142.114C248.123 142.114 247.017 141.654 246.201 140.836C245.386 140.018 244.928 138.909 244.928 137.752" fill="black"/>
<path opacity="0.2" d="M244.928 137.025C244.928 135.869 245.386 134.759 246.201 133.941C247.017 133.123 248.123 132.664 249.277 132.664C250.43 132.664 251.536 133.123 252.352 133.941C253.167 134.759 253.626 135.869 253.626 137.025" fill="black"/>
<path d="M247.102 135.935C247.302 135.935 247.465 135.691 247.465 135.39C247.465 135.089 247.302 134.845 247.102 134.845C246.902 134.845 246.74 135.089 246.74 135.39C246.74 135.691 246.902 135.935 247.102 135.935Z" fill="#FF6584"/>
<path d="M249.276 135.208C249.477 135.208 249.639 134.964 249.639 134.663C249.639 134.362 249.477 134.118 249.276 134.118C249.076 134.118 248.914 134.362 248.914 134.663C248.914 134.964 249.076 135.208 249.276 135.208Z" fill="#FF6584"/>
<path d="M249.276 139.933C249.477 139.933 249.639 139.689 249.639 139.388C249.639 139.087 249.477 138.843 249.276 138.843C249.076 138.843 248.914 139.087 248.914 139.388C248.914 139.689 249.076 139.933 249.276 139.933Z" fill="#FF6584"/>
<path d="M251.451 137.025C251.651 137.025 251.813 136.781 251.813 136.48C251.813 136.179 251.651 135.935 251.451 135.935C251.251 135.935 251.088 136.179 251.088 136.48C251.088 136.781 251.251 137.025 251.451 137.025Z" fill="#FF6584"/>
<path d="M251.088 141.023C251.289 141.023 251.451 140.779 251.451 140.478C251.451 140.177 251.289 139.933 251.088 139.933C250.888 139.933 250.726 140.177 250.726 140.478C250.726 140.779 250.888 141.023 251.088 141.023Z" fill="#FF6584"/>
<path d="M246.739 139.206C246.94 139.206 247.102 138.962 247.102 138.661C247.102 138.36 246.94 138.116 246.739 138.116C246.539 138.116 246.377 138.36 246.377 138.661C246.377 138.962 246.539 139.206 246.739 139.206Z" fill="#FF6584"/>
<path d="M174.707 116.759C175.556 116.759 176.244 116.069 176.244 115.218C176.244 114.366 175.556 113.676 174.707 113.676C173.859 113.676 173.17 114.366 173.17 115.218C173.17 116.069 173.859 116.759 174.707 116.759Z" fill="#3F3D56"/>
<path d="M216.485 171.168L179.572 160.902L180.986 155.634L217.899 165.901L216.485 171.168Z" fill="#F9A825"/>
<path d="M211.074 169.407C198.433 171.834 185.449 171.834 172.808 169.407V163.947C185.477 166.053 198.405 166.053 211.074 163.947V169.407Z" fill="#F9A825"/>
<path d="M215.008 153.026C202.367 155.453 189.382 155.453 176.742 153.026V147.566C189.411 149.672 202.339 149.672 215.008 147.566V153.026Z" fill="#F9A825"/>
<path d="M228.24 159.579C215.6 162.006 202.615 162.006 189.974 159.579V154.118C202.643 156.224 215.571 156.224 228.24 154.118V159.579Z" fill="#F9A825"/>
<path d="M231.458 165.767C218.818 168.194 205.833 168.194 193.192 165.767V160.307C205.861 162.413 218.789 162.413 231.458 160.307V165.767Z" fill="#F9A825"/>
<path d="M242.68 173.854L204.927 180.214L204.052 174.826L241.804 168.466L242.68 173.854Z" fill="#F9A825"/>
<path d="M237.041 174.554C226.574 182.121 214.777 187.638 202.27 190.818L200.03 185.856C212.428 182.375 224.173 176.881 234.801 169.592L237.041 174.554Z" fill="#F9A825"/>
<path d="M233.896 157.997C223.429 165.564 211.632 171.082 199.125 174.261L196.885 169.299C209.283 165.818 221.028 160.324 231.656 153.035L233.896 157.997Z" fill="#F9A825"/>
<path d="M248.607 158.327C238.14 165.893 226.343 171.411 213.836 174.591L211.596 169.629C223.994 166.148 235.739 160.654 246.367 153.365L248.607 158.327Z" fill="#F9A825"/>
<path d="M254.07 162.582C243.603 170.149 231.807 175.667 219.299 178.846L217.06 173.884C229.457 170.403 241.203 164.909 251.83 157.62L254.07 162.582Z" fill="#F9A825"/>
<path d="M208.324 151.927H206.512V153.745H208.324V151.927Z" fill="#00BF71"/>
<path d="M213.76 183.549H211.948V185.366H213.76V183.549Z" fill="#00BF71"/>
<path d="M184.768 151.927H182.956V153.745H184.768V151.927Z" fill="#00BF71"/>
<path d="M226.807 174.462H224.995V176.279H226.807V174.462Z" fill="#00BF71"/>
<path d="M227.894 163.922H226.082V165.739H227.894V163.922Z" fill="#00BF71"/>
<path d="M198.002 158.946L195.903 157.517L195.089 158.721L197.188 160.149L198.002 158.946Z" fill="#00BF71"/>
<path d="M219.384 162.944L217.285 161.516L216.471 162.719L218.571 164.147L219.384 162.944Z" fill="#00BF71"/>
<path d="M193.291 169.85L191.192 168.421L190.378 169.624L192.477 171.053L193.291 169.85Z" fill="#00BF71"/>
<path d="M206.581 169.744L208.005 167.639L206.806 166.822L205.382 168.928L206.581 169.744Z" fill="#00BF71"/>
<path d="M216.366 172.288L217.79 170.183L216.59 169.367L215.166 171.472L216.366 172.288Z" fill="#00BF71"/>
<path d="M242.462 163.565L243.886 161.459L242.687 160.643L241.262 162.748L242.462 163.565Z" fill="#00BF71"/>
<path d="M414 225.952H0V227H414V225.952Z" fill="#3F3D56"/>
</svg>
